<?xml version="1.0" encoding="UTF-8" standalone="no"?>
<svg
   width="1em"
   height="1em"
   viewBox="0 0 256 256"
   version="1.1"
   id="svg54"
   sodipodi:docname="misskey.svg"
   inkscape:version="1.2.2 (732a01da63, 2022-12-09)"
   xmlns:inkscape="http://www.inkscape.org/namespaces/inkscape"
   xmlns:sodipodi="http://sodipodi.sourceforge.net/DTD/sodipodi-0.dtd"
   xmlns="http://www.w3.org/2000/svg"
   xmlns:svg="http://www.w3.org/2000/svg">
  <defs
     id="defs58" />
  <sodipodi:namedview
     id="namedview56"
     pagecolor="#ffffff"
     bordercolor="#000000"
     borderopacity="0.25"
     inkscape:showpageshadow="2"
     inkscape:pageopacity="0.0"
     inkscape:pagecheckerboard="0"
     inkscape:deskcolor="#d1d1d1"
     showgrid="false"
     inkscape:zoom="3.4257812"
     inkscape:cx="127.85405"
     inkscape:cy="151.49829"
     inkscape:window-width="1920"
     inkscape:window-height="1057"
     inkscape:window-x="-8"
     inkscape:window-y="-8"
     inkscape:window-maximized="1"
     inkscape:current-layer="g52" />
  <g
     fill="none"
     id="g52">
    <path
       fill="#86B300"
       d="m 31.368424,36.271947 c -3.731946,0 -7.284708,0.633937 -10.66076,1.903046 C 14.66735,40.34743 9.6922458,44.242494 5.7848237,49.856476 2.0528781,55.291277 0.18814139,61.358778 0.18814139,68.05898 v 119.00335 c 0,8.69345 3.02015781,16.21047 9.06047221,22.54984 6.2182624,6.15772 13.5919434,9.23719 22.1198104,9.23719 8.704578,0 16.077025,-3.07947 22.118575,-9.23719 6.217026,-6.33937 9.327392,-13.85639 9.327392,-22.54984 v -21.64035 c 0.06673,-4.68718 4.8021,-3.45761 7.195735,0 4.482042,7.91371 13.984906,14.7103 25.049761,14.67199 11.063613,-0.0395 20.253833,-5.61645 25.049753,-14.67199 1.81654,-2.1848 6.93747,-5.90685 7.46265,0 v 21.64035 c 0,8.69345 3.01893,16.21047 9.06049,22.54984 6.21702,6.15772 13.5907,9.23719 22.11856,9.23719 8.70582,0 16.07826,-3.07947 22.11858,-9.23719 6.21827,-6.33937 9.32739,-13.85639 9.32739,-22.54984 V 68.060216 c 0,-6.701438 -1.9537,-12.770175 -5.86237,-18.202504 -3.73071,-5.615218 -8.61683,-9.510282 -14.65715,-11.683955 -3.55276,-1.267873 -7.10676,-1.90181 -10.65952,-1.90181 -9.59432,0 -17.67732,3.803619 -24.25147,11.412092 l -31.64245,37.753203 c -0.71056,0.543727 -3.06465,4.698297 -8.065704,4.698297 -4.999816,0 -7.086988,-4.15457 -7.797542,-4.698297 L 55.3505,47.684039 C 48.956762,40.076802 40.961502,36.271947 31.367188,36.271947 Z m 197.169076,0 c -7.46266,0 -13.85763,2.717401 -19.1874,8.150965 -5.15305,5.251911 -7.72834,11.68272 -7.72834,19.289958 0,7.607237 2.57529,14.128256 7.72834,19.56182 5.32977,5.251913 11.72474,7.8791 19.1874,7.8791 7.46141,0 13.85763,-2.625958 19.18739,-7.8791 5.32975,-5.433564 7.99526,-11.954583 7.99526,-19.56182 0,-7.607238 -2.66551,-14.038047 -7.99526,-19.289958 -5.32976,-5.432328 -11.72598,-8.150965 -19.18739,-8.150965 z m 0.26567,60.315405 c -7.46141,0 -13.85762,2.717407 -19.18738,8.150968 -5.32976,5.43356 -7.99403,11.95459 -7.99403,19.56182 v 67.10706 c 0,7.60723 2.66427,14.12826 7.99403,19.56182 5.32976,5.25191 11.72597,7.8791 19.18738,7.8791 7.46143,0 13.76866,-2.62719 18.92172,-7.8791 5.32975,-5.43356 7.99526,-11.95459 7.99526,-19.56182 v -67.10706 c 0,-7.60723 -2.66551,-14.12826 -7.99526,-19.56182 -5.15306,-5.433561 -11.46029,-8.150968 -18.92172,-8.150968 z"
       id="path50"
       style="fill:#000000;stroke-width:1.23574" />
  </g>
</svg>
