<?xml version="1.0" standalone="no"?>
<!DOCTYPE svg PUBLIC "-//W3C//DTD SVG 20010904//EN"
 "http://www.w3.org/TR/2001/REC-SVG-20010904/DTD/svg10.dtd">
<svg version="1.0" xmlns="http://www.w3.org/2000/svg"
 width="474.000000pt" height="474.000000pt" viewBox="0 0 474.000000 474.000000"
 preserveAspectRatio="xMidYMid meet">

<g transform="translate(0.000000,474.000000) scale(0.100000,-0.100000)"
fill="#000000" stroke="none">
<path d="M2210 4680 c-374 -26 -756 -150 -1065 -345 -143 -90 -195 -132 -195
-159 0 -16 89 -132 271 -355 215 -262 277 -331 295 -331 13 0 55 21 94 46 165
106 357 179 555 211 121 19 371 13 485 -12 170 -37 361 -117 491 -206 32 -21
69 -39 83 -39 21 0 71 57 295 329 187 228 271 337 271 354 0 29 -21 48 -137
126 -418 279 -938 416 -1443 381z"/>
<path d="M495 3729 c-201 -274 -345 -613 -405 -959 -20 -112 -16 -136 23 -144
12 -3 191 -21 397 -41 206 -19 391 -38 410 -41 52 -7 67 10 85 99 34 167 106
343 199 486 25 39 46 82 46 95 0 18 -70 80 -327 291 -205 168 -338 271 -355
273 -23 4 -33 -5 -73 -59z"/>
<path d="M3825 3520 c-249 -204 -331 -277 -333 -295 -2 -14 7 -38 21 -57 82
-111 170 -304 207 -453 37 -154 40 -163 54 -168 13 -5 766 65 843 78 52 9 57
30 34 158 -25 139 -70 298 -117 419 -103 262 -301 588 -357 588 -14 0 -140
-96 -352 -270z"/>
<path d="M480 2150 c-201 -21 -372 -41 -382 -44 -25 -11 -27 -37 -8 -143 41
-226 100 -405 205 -618 67 -137 177 -317 228 -372 35 -39 60 -30 186 75 65 53
213 175 330 270 116 95 212 178 212 185 3 26 -4 43 -42 99 -90 131 -166 314
-200 478 -11 52 -26 98 -32 102 -21 13 -121 7 -497 -32z"/>
<path d="M3762 2177 c-6 -7 -18 -49 -27 -92 -34 -163 -110 -348 -198 -479 -26
-38 -47 -79 -47 -91 0 -17 44 -59 183 -172 100 -82 249 -204 331 -271 95 -79
156 -122 171 -122 26 0 62 40 132 145 176 264 314 625 357 935 12 82 30 76
-414 121 -436 43 -473 45 -488 26z"/>
<path d="M1224 921 c-148 -181 -270 -339 -272 -351 -5 -30 15 -49 127 -124
282 -189 623 -321 966 -372 164 -24 485 -25 650 0 146 21 350 73 481 121 141
52 341 155 471 241 130 87 143 98 143 128 0 34 -535 686 -562 686 -12 0 -55
-22 -97 -49 -148 -94 -296 -156 -476 -197 -112 -26 -443 -27 -562 -1 -173 37
-349 110 -487 201 -38 25 -79 46 -91 46 -16 0 -88 -82 -291 -329z"/>
</g>
</svg>
