<?xml version="1.0" encoding="UTF-8" standalone="no"?>
<svg
   width="143"
   height="143"
   viewBox="0 0 143 143"
   fill="none"
   version="1.1"
   id="svg13"
   sodipodi:docname="rym.svg"
   inkscape:version="1.4 (e7c3feb100, 2024-10-09)"
   xmlns:inkscape="http://www.inkscape.org/namespaces/inkscape"
   xmlns:sodipodi="http://sodipodi.sourceforge.net/DTD/sodipodi-0.dtd"
   xmlns="http://www.w3.org/2000/svg"
   xmlns:svg="http://www.w3.org/2000/svg">
  <sodipodi:namedview
     id="namedview13"
     pagecolor="#ffffff"
     bordercolor="#000000"
     borderopacity="0.25"
     inkscape:showpageshadow="2"
     inkscape:pageopacity="0.0"
     inkscape:pagecheckerboard="0"
     inkscape:deskcolor="#d1d1d1"
     inkscape:zoom="5.8951049"
     inkscape:cx="71.5"
     inkscape:cy="71.5"
     inkscape:window-width="1920"
     inkscape:window-height="1052"
     inkscape:window-x="0"
     inkscape:window-y="0"
     inkscape:window-maximized="1"
     inkscape:current-layer="svg13" />
  <path
     d="M85.7921 43.0106C96.6509 47.3959 115.863 46.7695 127.766 45.7254C117.951 24.2165 96.2333 9.18123 71.1744 9.18123C59.0627 9.18123 47.995 12.5224 38.3892 18.5783C59.2715 8.76358 69.295 36.1195 85.7921 43.0106Z"
     fill="#E6E4E5"
     id="path1" />
  <path
     id="path2"
     style="fill:#000000"
     d="M 71.173828 0.41015625 C 31.915028 0.41015625 0.17382812 32.151356 0.17382812 71.410156 C 0.17382813 110.66856 31.915028 142.41016 71.173828 142.41016 C 110.43303 142.41016 142.17383 110.66856 142.17383 71.410156 C 142.17383 32.360156 110.43303 0.41015625 71.173828 0.41015625 z M 47.167969 16.132812 C 61.96543 16.307265 71.871672 36.988369 85.791016 42.802734 C 96.649816 47.188034 115.86067 46.561678 127.76367 45.517578 C 130.26967 50.946978 131.93939 56.793894 132.77539 63.058594 C 126.09239 65.982094 117.3228 68.487828 107.7168 67.861328 C 87.043191 66.608428 85.373253 51.155591 60.314453 57.837891 C 41.729153 62.849691 21.054934 79.346587 11.240234 88.117188 C 9.7785152 82.896586 8.9433594 77.257256 8.9433594 71.410156 C 8.9433594 48.857256 20.636719 29.436741 38.386719 18.369141 C 41.519078 16.770334 44.427698 16.100506 47.167969 16.132812 z M 86.146484 75.351562 C 90.812598 75.227297 95.319609 78.211172 97.277344 83.105469 C 99.783244 89.370169 97.485672 96.259725 91.638672 98.765625 C 86.000472 101.06312 79.318216 97.9309 76.603516 91.875 C 74.097616 85.6103 76.395087 78.718791 82.242188 76.212891 C 83.521219 75.664725 84.839972 75.386357 86.146484 75.351562 z M 132.35938 82.6875 C 127.13838 111.7135 101.87113 133.84961 71.173828 133.84961 C 50.291428 133.84961 31.915172 123.61608 20.638672 107.95508 C 27.321072 102.31608 35.463959 97.096197 44.443359 95.216797 C 70.128659 89.578597 70.130056 108.1632 91.847656 105.6582 C 103.75046 104.1962 120.03836 92.7111 132.35938 82.6875 z " />
  <defs
     id="defs13">
    <linearGradient
       id="paint0_linear_0_86"
       x1="70.8335"
       y1="57.9435"
       x2="70.8335"
       y2="17.9123"
       gradientUnits="userSpaceOnUse">
      <stop
         offset="0"
         stop-color="#88C6EB"
         id="stop6" />
      <stop
         offset="1"
         stop-color="#2392CC"
         id="stop7" />
    </linearGradient>
    <linearGradient
       id="paint1_linear_0_86"
       x1="76.8285"
       y1="109.069"
       x2="70.589"
       y2="66.1666"
       gradientUnits="userSpaceOnUse">
      <stop
         offset="0"
         stop-color="#2383C6"
         id="stop8" />
      <stop
         offset="1"
         stop-color="#33519F"
         id="stop9" />
    </linearGradient>
    <linearGradient
       id="paint2_linear_0_86"
       x1="76.5127"
       y1="128.007"
       x2="76.5127"
       y2="94.94"
       gradientUnits="userSpaceOnUse">
      <stop
         offset="0"
         stop-color="#1E4999"
         id="stop10" />
      <stop
         offset="1"
         stop-color="#1B3B6C"
         id="stop11" />
    </linearGradient>
    <linearGradient
       id="paint3_linear_0_86"
       x1="88.7722"
       y1="102.59"
       x2="85.7469"
       y2="75.5277"
       gradientUnits="userSpaceOnUse">
      <stop
         offset="0"
         stop-color="#1E4999"
         id="stop12" />
      <stop
         offset="1"
         stop-color="#1B3B6C"
         id="stop13" />
    </linearGradient>
  </defs>
</svg>
