<svg xmlns="http://www.w3.org/2000/svg" viewBox="0 0 17.7 12.8"><defs><style>.cls-1{fill:#000000;fill-rule:evenodd;}</style></defs><g id="Layer_2" data-name="Layer 2"><g id="Layer_1-2" data-name="Layer 1"><path class="cls-1" d="M17.7,6.4h0c-3.34.36-7.23.82-10.18,3.73A2.49,2.49,0,0,0,3.35,8.5,2.53,2.53,0,0,0,5,12.63c-4,1.15-7-3.79-3.19-6.23C-2.06,4,1-1,5,.17A2.53,2.53,0,0,0,3.35,4.3,2.49,2.49,0,0,0,7.52,2.67C10.47,5.58,14.36,6,17.7,6.4ZM5.07,11.27h0A1.09,1.09,0,1,0,4,10.19a1.08,1.08,0,0,0,1.08,1.08Zm0-9.74h0A1.09,1.09,0,1,1,4,2.61,1.08,1.08,0,0,1,5.07,1.53Z"/></g></g></svg>