<svg xmlns="http://www.w3.org/2000/svg" viewBox="0 0 17.7 12.8"><defs><style>.cls-1{fill:#000000;fill-rule:evenodd;}</style></defs><g id="Layer_2" data-name="Layer 2"><g id="Layer_1-2" data-name="Layer 1"><path class="cls-1" d="M0,6.4H0c3.34.36,7.23.82,10.18,3.73A2.48,2.48,0,0,1,14.34,8.5a2.53,2.53,0,0,1-1.59,4.13c4,1.15,7-3.79,3.19-6.23C19.76,4,16.74-1,12.75.17A2.53,2.53,0,0,1,14.34,4.3a2.48,2.48,0,0,1-4.16-1.63C7.23,5.58,3.34,6,0,6.4Zm12.62,4.87h0a1.09,1.09,0,0,1,0-2.17,1.09,1.09,0,1,1,0,2.17Zm0-9.74h0a1.09,1.09,0,1,0,1.09,1.08,1.08,1.08,0,0,0-1.09-1.08Z"/></g></g></svg>