<svg version="1.0" xmlns="http://www.w3.org/2000/svg"
 viewBox="0 0 2035.000000 1607.000000"
 preserveAspectRatio="xMidYMid meet">

<g transform="translate(0.000000,1607.000000) scale(0.100000,-0.100000)"
fill="currentColor" stroke="none">
<path d="M10021 16024 c-154 -41 -302 -147 -431 -311 -106 -132 -445 -683
-757 -1228 -732 -1280 -1293 -2507 -1584 -3464 -199 -652 -280 -1159 -265
-1651 5 -188 25 -413 38 -425 2 -2 46 -9 98 -15 505 -57 883 -307 1130 -746
l54 -97 186 6 c102 4 278 12 393 18 177 11 207 15 207 28 0 54 -33 479 -51
651 -84 842 -251 1594 -469 2108 -44 104 -55 122 -74 122 -13 0 -49 9 -81 20
-203 70 -345 273 -345 495 0 302 265 556 535 514 228 -36 415 -264 415 -506 0
-90 -18 -171 -56 -245 -14 -28 -24 -60 -21 -72 3 -12 33 -86 67 -166 278 -651
470 -1604 544 -2698 8 -112 15 -204 17 -206 2 -2 85 0 184 3 l180 6 3 1951 2
1950 -43 33 c-118 88 -197 253 -197 410 0 229 140 430 348 500 290 98 602
-161 602 -500 0 -157 -79 -322 -196 -410 l-44 -33 0 -1948 c0 -1550 3 -1949
13 -1953 6 -2 91 -6 187 -8 l176 -4 17 252 c74 1070 264 2004 539 2650 33 77
62 152 65 166 3 16 -5 45 -21 77 -38 74 -56 155 -56 245 0 242 187 470 415
506 270 42 535 -212 535 -514 0 -239 -166 -456 -389 -507 l-54 -13 -33 -72
c-264 -578 -486 -1698 -530 -2677 l-7 -143 119 -7 c302 -17 486 -26 570 -26
l91 0 54 96 c246 437 625 687 1129 744 52 6 97 16 101 22 16 25 38 329 39 524
1 830 -305 1882 -961 3299 -116 252 -430 872 -594 1175 -362 669 -903 1574
-1055 1763 -131 166 -278 271 -435 312 -74 19 -232 19 -304 -1z"/>
<path d="M505 13949 c-166 -15 -334 -87 -398 -171 -53 -70 -70 -125 -75 -246
-8 -208 24 -312 225 -715 773 -1556 1706 -3081 2480 -4055 268 -337 634 -728
865 -924 158 -134 181 -148 243 -148 51 0 60 5 271 144 758 497 1411 821 1952
967 64 18 121 36 126 40 6 6 3 79 -9 196 -23 221 -26 640 -7 823 74 693 269
1420 618 2303 99 252 110 300 77 347 -29 42 -51 55 -238 149 -815 406 -2036
745 -3640 1010 -695 115 -1662 237 -2214 280 -147 12 -145 12 -276 0z"/>
<path d="M19620 13954 c-19 -2 -91 -9 -160 -14 -339 -29 -1011 -110 -1499
-181 -1678 -244 -3047 -578 -3952 -964 -204 -88 -495 -233 -530 -267 -47 -42
-40 -73 70 -352 353 -892 553 -1638 623 -2316 19 -192 16 -589 -6 -818 -12
-118 -16 -195 -10 -200 5 -5 56 -21 114 -37 579 -156 1252 -489 1983 -981 162
-110 236 -154 256 -154 78 0 530 413 836 763 822 943 1792 2481 2693 4270 256
508 277 568 277 797 0 157 -10 198 -72 278 -67 88 -229 155 -416 172 -110 10
-137 10 -207 4z"/>
<path d="M6310 8025 c-520 -138 -1121 -441 -1865 -940 -942 -633 -2061 -1551
-3210 -2635 -294 -277 -389 -377 -463 -489 -91 -135 -107 -183 -107 -318 l0
-111 40 -58 c71 -103 239 -198 439 -249 171 -43 780 -153 1266 -229 1764 -276
3251 -377 4324 -295 142 11 156 14 156 31 0 10 -38 90 -84 176 -712 1335
-1051 2452 -998 3289 31 491 131 829 333 1133 88 133 273 315 406 400 56 36
102 71 103 79 0 8 -26 48 -58 90 -33 42 -71 95 -87 119 -19 28 -35 42 -49 41
-11 0 -77 -15 -146 -34z"/>
<path d="M13845 8018 c-16 -24 -54 -77 -87 -119 -32 -42 -58 -82 -58 -90 1 -8
47 -43 103 -79 134 -86 319 -268 406 -400 156 -234 258 -515 305 -840 104
-707 -35 -1477 -450 -2488 -135 -328 -348 -776 -530 -1114 -41 -75 -74 -145
-74 -156 0 -21 -12 -20 330 -43 217 -16 1013 -15 1310 0 896 46 1787 142 2840
307 536 83 1169 200 1308 240 183 53 336 145 400 241 l37 56 0 111 c0 134 -16
181 -108 319 -89 136 -450 490 -1047 1027 -1765 1589 -3254 2625 -4264 2967
-123 41 -349 103 -379 103 -8 0 -27 -19 -42 -42z"/>
<path d="M7766 7249 c-566 -28 -855 -161 -1009 -464 -158 -314 -181 -903 -56
-1465 209 -945 820 -2187 1789 -3640 357 -536 804 -1153 950 -1314 121 -132
297 -245 470 -302 80 -27 95 -28 265 -28 170 0 185 1 265 28 176 58 351 171
475 309 134 146 586 772 915 1262 976 1459 1590 2696 1810 3645 80 344 105
657 80 975 -46 559 -237 823 -676 934 -309 78 -723 85 -1771 31 -893 -46
-1297 -46 -2198 0 -760 39 -1002 44 -1309 29z"/>
</g>
</svg>
