<svg xmlns="http://www.w3.org/2000/svg" viewBox="0 0 64.62 22.87"><defs><style>.cls-1{fill:#000000;fill-rule:evenodd;}</style></defs><g id="Layer_2" data-name="Layer 2"><g id="Layer_1-2" data-name="Layer 1"><path class="cls-1" d="M15.24,15.91c-7.44,2.6-13.09-2.11-14-7.64C.79,5.51,2.65,3.35,5.86,2.83s5.8,1,6.39,3.63v0c-.64-2.75-3.67-4.51-6.93-4S-.42,5.84.06,8.76c1,5.84,7.22,9.68,14,8.57S28.49,5,39.24,1.14C24.81,7,22.67,13.3,15.24,15.91Z"/><path class="cls-1" d="M8,21.59C30.66,29.11,36,1,58.68,2.82,33.06.75,30.22,26.61,8,21.59Z"/><path class="cls-1" d="M11.58,3.29A2.4,2.4,0,0,0,9.52,6a2.41,2.41,0,0,0,2.82,1.9A2.4,2.4,0,0,0,14.4,5.19,2.41,2.41,0,0,0,11.58,3.29Z"/><path class="cls-1" d="M5.2,18.89c22.65,7.52,28-20.6,50.66-18.77C30.24-2,27.4,23.91,5.2,18.89Z"/><path class="cls-1" d="M49.38,7.47c7.44-2.6,13.09,2.11,14,7.64.46,2.76-1.39,4.92-4.61,5.45s-5.8-1-6.39-3.64v0c.64,2.75,3.67,4.51,6.93,4s5.74-3.38,5.26-6.3c-1-5.84-7.22-9.68-14-8.57S36.13,18.38,25.38,22.24C39.81,16.41,42,10.08,49.38,7.47Z"/><path class="cls-1" d="M53,20.09a2.33,2.33,0,1,0-.76-4.59A2.33,2.33,0,1,0,53,20.09Z"/><path class="cls-1" d="M48.45,15.54a1.17,1.17,0,0,0,1-1.31,1.2,1.2,0,0,0-2.36.39A1.17,1.17,0,0,0,48.45,15.54Z"/><path class="cls-1" d="M16.71,9.83a1.13,1.13,0,1,0-1.36-.92A1.16,1.16,0,0,0,16.71,9.83Z"/></g></g></svg>