<svg xmlns="http://www.w3.org/2000/svg" viewBox="0 0 164.69 12.8"><defs><style>.cls-1{fill:#000000;fill-rule:evenodd;}</style></defs><g id="Layer_2" data-name="Layer 2"><g id="Layer_1-2" data-name="Layer 1"><path class="cls-1" d="M22.47,2.81a.51.51,0,0,0,0,1,.51.51,0,0,0,0-1ZM25,7.38h0L73.7,6.5V6.3L25,5.42a5.64,5.64,0,0,0-1-2.9,8.14,8.14,0,0,1,.11,3.88A8.14,8.14,0,0,1,24,10.28a5.61,5.61,0,0,0,1-2.9ZM22.47,10h0a.51.51,0,0,1,0-1,.51.51,0,1,1,0,1ZM0,6.4H0c3.34.36,7.23.82,10.18,3.73A2.48,2.48,0,0,1,14.34,8.5a2.53,2.53,0,0,1-1.59,4.13c4,1.15,7-3.79,3.19-6.23C19.76,4,16.74-1,12.75.17A2.53,2.53,0,0,1,14.34,4.3a2.48,2.48,0,0,1-4.16-1.63C7.23,5.58,3.34,6,0,6.4Zm12.62,4.87h0a1.09,1.09,0,0,1,0-2.17,1.09,1.09,0,1,1,0,2.17ZM19.28,6.4h0a3.52,3.52,0,0,1,2.1,3.88,2.05,2.05,0,0,0,2.06.11,6.15,6.15,0,0,0,0-4,6.12,6.12,0,0,0,0-4,2,2,0,0,0-2.06.1,3.52,3.52,0,0,1-2.1,3.88Zm3,0h0a.51.51,0,1,1-.51-.51.51.51,0,0,1,.51.51Zm.05,2h0a.51.51,0,1,1,0-1,.51.51,0,0,1,0,1ZM12.62,1.53h0a1.09,1.09,0,1,0,1.09,1.08,1.08,1.08,0,0,0-1.09-1.08Zm9.74,2.82h0a.51.51,0,1,0,0,1,.51.51,0,0,0,0-1Z"/><path class="cls-1" d="M82.39,4.15A2.25,2.25,0,1,0,84.64,6.4a2.26,2.26,0,0,0-2.25-2.25Z"/><path class="cls-1" d="M79,4.79C73.58,5.71,67.35,6,61.3,6.4c6,.41,12.28.69,17.69,1.61a2.78,2.78,0,0,1,0-3.22Z"/><path class="cls-1" d="M85.79,4.79C91.2,5.71,97.42,6,103.48,6.4,97.42,6.81,91.2,7.09,85.79,8a2.78,2.78,0,0,0,0-3.22Z"/><path class="cls-1" d="M142.22,2.81a.51.51,0,1,1-.51.51.5.5,0,0,1,.51-.51ZM139.7,7.38h0L90.39,6.5V6.3l49.31-.88a5.66,5.66,0,0,1,1-2.9,8,8,0,0,0-.11,3.88,8,8,0,0,0,.11,3.88,5.62,5.62,0,0,1-1-2.9ZM142.22,10h0a.51.51,0,1,0-.51-.51.5.5,0,0,0,.51.51ZM164.69,6.4h0c-3.34.36-7.23.82-10.18,3.73a2.48,2.48,0,0,0-4.16-1.63,2.53,2.53,0,0,0,1.59,4.13c-4,1.15-7-3.79-3.19-6.23C144.93,4,148-1,151.94.17a2.53,2.53,0,0,0-1.59,4.13,2.48,2.48,0,0,0,4.16-1.63c3,2.91,6.84,3.37,10.18,3.73Zm-12.62,4.87h0a1.09,1.09,0,0,0,0-2.17,1.09,1.09,0,1,0,0,2.17ZM145.41,6.4h0a3.52,3.52,0,0,0-2.1,3.88,2.05,2.05,0,0,1-2.06.11,6.15,6.15,0,0,1,0-4,6.12,6.12,0,0,1,0-4,2,2,0,0,1,2.06.1,3.52,3.52,0,0,0,2.1,3.88Zm-3,0h0a.51.51,0,0,0,.51.51.51.51,0,0,0,0-1,.51.51,0,0,0-.51.51Zm0,2h0a.51.51,0,1,0,0-1,.51.51,0,0,0,0,1Zm9.74-6.92h0A1.09,1.09,0,1,1,151,2.61a1.08,1.08,0,0,1,1.09-1.08Zm-9.74,2.82h0a.51.51,0,1,1,0,1,.51.51,0,0,1,0-1Z"/></g></g></svg>