<svg xmlns="http://www.w3.org/2000/svg" viewBox="0 0 91.8 25.31"><defs><style>.cls-1{fill:#000000;fill-rule:evenodd;}</style></defs><g id="Layer_2" data-name="Layer 2"><g id="Layer_1-2" data-name="Layer 1"><path class="cls-1" d="M7.16,5.75C23.13.45,26.92,20.28,42.89,19,24.82,20.46,22.82,2.21,7.16,5.75Z"/><path class="cls-1" d="M7.89,22.51c4.07,0,7.47-3.41,7.24-6.78-.19-2.81-2.37-3.55-4.43-3.64a5.12,5.12,0,0,0-4.32,2.54,3.08,3.08,0,0,1,2.55-.72A2.83,2.83,0,1,1,8,19.48a3.2,3.2,0,0,1-2.62-3.26c0-2.57,2.81-4.61,5.13-4.79S16,12.8,16,15.78c-.05,4.29-3.71,7.29-8.1,7.29S-.19,20,0,16.1c.24-4.72,4.38-9,10.51-9.33S20.62,9.71,21.06,15h0c-.44-4.16-4.64-7.43-9.76-7.43C5.88,7.59.86,12,.86,16.5.86,19.88,3.83,22.51,7.89,22.51Z"/><path class="cls-1" d="M35.2,15c5.49,2.14,10.32-1.91,9.86-5.38a3.36,3.36,0,0,0-3.77-3.17c-1.88,0-1.31,1.45-3.56,2.33-.94-1.59,1.32-3.5,4.46-3.26,2.79.22,3.69,2.65,3.71,4.44C46,14,41.37,17.15,36,16S25.85,7.29,18.27,4.56C28.45,8.67,29.7,12.84,35.2,15Z"/><path class="cls-1" d="M39.09,9.71a1.79,1.79,0,0,1-1.54-2,1.85,1.85,0,1,1,1.54,2Z"/><path class="cls-1" d="M84.64,5.75C68.67.45,64.87,20.28,48.91,19,67,20.46,69,2.21,84.64,5.75Z"/><path class="cls-1" d="M83.9,22.51c-4.06,0-7.46-3.41-7.23-6.78.19-2.81,2.36-3.55,4.42-3.64a5.12,5.12,0,0,1,4.33,2.54,3.08,3.08,0,0,0-2.55-.72,2.92,2.92,0,0,0-2.5,3.27,2.92,2.92,0,0,0,3.42,2.3,3.2,3.2,0,0,0,2.62-3.26c0-2.57-2.81-4.61-5.13-4.79s-5.49,1.37-5.45,4.35c0,4.29,3.71,7.29,8.09,7.29S92,20,91.79,16.1c-.24-4.72-4.38-9-10.51-9.33S71.18,9.71,70.74,15h0c.44-4.16,4.64-7.43,9.76-7.43,5.42,0,10.44,4.4,10.44,8.91C90.94,19.88,88,22.51,83.9,22.51Z"/><path class="cls-1" d="M56.6,15c-5.49,2.14-10.32-1.91-9.86-5.38a3.36,3.36,0,0,1,3.77-3.17c1.88,0,1.3,1.45,3.56,2.33.94-1.59-1.32-3.5-4.46-3.26-2.79.22-3.69,2.65-3.71,4.44,0,4.09,4.53,7.22,9.86,6.05S65.94,7.29,73.53,4.56C63.35,8.67,62.09,12.84,56.6,15Z"/><path class="cls-1" d="M52.71,9.71a1.79,1.79,0,0,0,1.54-2,1.85,1.85,0,0,0-3.65.6A1.8,1.8,0,0,0,52.71,9.71Z"/><path class="cls-1" d="M46.05,25.3a.82.82,0,0,0,.7-.92.85.85,0,1,0-.7.92Z"/><path class="cls-1" d="M46.13,22.5a1.3,1.3,0,1,0-1.57-1.05A1.34,1.34,0,0,0,46.13,22.5Z"/><path class="cls-1" d="M46.05,0a.83.83,0,0,1,.7.93.81.81,0,0,1-1,.64.82.82,0,0,1-.71-.92A.83.83,0,0,1,46.05,0Z"/><path class="cls-1" d="M46.13,2.81a1.34,1.34,0,0,1,1.15,1.5,1.38,1.38,0,0,1-2.72-.44A1.34,1.34,0,0,1,46.13,2.81Z"/><path class="cls-1" d="M46.21,18.66A1.82,1.82,0,1,0,44,17.18,1.87,1.87,0,0,0,46.21,18.66Z"/></g></g></svg>