<svg xmlns="http://www.w3.org/2000/svg" viewBox="0 0 209.27 23.52"><defs><style>.cls-1,.cls-2{fill:#000000;}.cls-2{fill-rule:evenodd;}</style></defs><g id="Layer_2" data-name="Layer 2"><g id="Layer_1-2" data-name="Layer 1"><path class="cls-1" d="M12.31,11.82c4.17-2,4.48-8.51.52-10.28C8.67-.33,5.69,5.1,8.44,7.54a2.51,2.51,0,0,0,4.2-1.12,2.11,2.11,0,0,0-.39-2.16,1.07,1.07,0,0,0-1.79.19,2.07,2.07,0,0,0,.3,2.35,1.37,1.37,0,0,0,.48.34A2.14,2.14,0,0,1,8.12,5.05c.1-3.83,5.78-4.39,6.72.48.54,2.79-1.37,5.48-3.45,5.76S8.46,9.88,6.86,9.73C4.21,9.47,2,10.61,0,11.82c2,1.22,4.21,2.36,6.86,2.1,1.6-.15,2.47-1.83,4.53-1.56s4,3,3.45,5.76c-.94,4.86-6.62,4.3-6.72.48a2.14,2.14,0,0,1,3.12-2.09,1.48,1.48,0,0,0-.48.33,2.1,2.1,0,0,0-.3,2.37,1.07,1.07,0,0,0,1.79.18,2.11,2.11,0,0,0,.39-2.16,2.51,2.51,0,0,0-4.2-1.12c-2.75,2.44.23,7.87,4.39,6,4-1.78,3.65-8.32-.52-10.3Zm5.18-2.15h0a2,2,0,0,0-1.82,2.15A2,2,0,0,0,17.49,14a2,2,0,0,0,1.81-2.16,2,2,0,0,0-1.81-2.15Z"/><polygon class="cls-2" points="34.24 11.2 80.04 11.2 80.04 12.47 34.24 12.47 34.24 11.2 34.24 11.2"/><path class="cls-2" d="M104.63,12.09c-.25.26-.52.51-.8.75l.8.74.81-.73c-.28-.24-.55-.5-.81-.76Zm-1.16,1a12.71,12.71,0,0,1-8.78,2.63c-2.55-.37-4.37-2.12-4.4-3.9s1.57-3.69,4.27-4.11a12.93,12.93,0,0,1,8.92,2.64l.82-.75c-3.73-3.45-3.39-7.21-1.78-8.76a3,3,0,0,1,4.29.07,4.67,4.67,0,0,1,1,3.71,8.41,8.41,0,0,1-2.89,5l.83.75a13,13,0,0,1,8.91-2.63c2.57.37,4.25,2.15,4.27,3.94s-1.63,3.87-4.63,4.12a13.59,13.59,0,0,1-8.56-2.69l-.82.75c3.69,3.41,3.4,7.13,1.84,8.7a3,3,0,0,1-4.35,0,4.67,4.67,0,0,1-1-3.71,8.36,8.36,0,0,1,2.89-5l-.83-.75Zm.36-2.46c.28.24.55.5.8.76.25-.26.53-.51.81-.75l-.81-.74-.8.73Zm6.46-2.12a12.48,12.48,0,0,0-4.16,2.14l.87.79c5.88-3.54,9.7-.76,8.25,1.24-.66.91-2.52,1.11-3.74,1A11.2,11.2,0,0,1,107,12l-.87.78A12.69,12.69,0,0,0,110.31,15c3,.89,7.24-.12,7.24-3.26s-4.22-4.08-7.26-3.17ZM105.78,11a10.21,10.21,0,0,0-.83.78,8.87,8.87,0,0,0,.83.78l.86-.78-.86-.78ZM99,15a12.58,12.58,0,0,0,4.16-2.14l-.88-.79c-5.87,3.54-9.69.76-8.24-1.24.66-.91,2.52-1.11,3.74-1a11.11,11.11,0,0,1,4.5,1.66l.87-.78a12.69,12.69,0,0,0-5.26-2.43c-2.84-.53-6.4.93-6.15,3.61S96,15.87,99,15Zm4.51-2.43a10.21,10.21,0,0,0,.83-.78,8.87,8.87,0,0,0-.83-.78l-.86.78.86.78Zm3,9.36a3.44,3.44,0,0,0,.92-3,8,8,0,0,0-2.76-4.72c-5.89,5.45-1.1,10.52,1.84,7.72Zm.93-10.14c6.51,3.83,8.93-.48,5.89-1.4-1.69-.51-4.08.34-5.89,1.4Zm-5.54,0c-6.5-3.83-8.92.48-5.88,1.4,1.69.51,4.08-.34,5.88-1.4Zm.94-10.14a3.44,3.44,0,0,0-.92,3,8,8,0,0,0,2.75,4.72c5.9-5.45,1.11-10.53-1.83-7.72Z"/><path class="cls-1" d="M197,11.82c-4.16-2-4.47-8.51-.51-10.28,4.16-1.87,7.14,3.56,4.39,6a2.52,2.52,0,0,1-4.21-1.12,2.13,2.13,0,0,1,.4-2.16,1.07,1.07,0,0,1,1.79.19,2.08,2.08,0,0,1-.3,2.35,1.37,1.37,0,0,1-.48.34,2.14,2.14,0,0,0,3.12-2.09c-.1-3.83-5.78-4.39-6.73.48-.53,2.79,1.37,5.48,3.46,5.76s2.92-1.41,4.53-1.56c2.65-.26,4.87.88,6.86,2.09-2,1.22-4.21,2.36-6.86,2.1-1.61-.15-2.47-1.83-4.53-1.56s-4,3-3.46,5.76c1,4.86,6.63,4.3,6.73.48A2.14,2.14,0,0,0,198,16.51a1.48,1.48,0,0,1,.48.33,2.12,2.12,0,0,1,.3,2.37,1.07,1.07,0,0,1-1.79.18,2.13,2.13,0,0,1-.4-2.16,2.52,2.52,0,0,1,4.21-1.12c2.75,2.44-.23,7.87-4.39,6-4-1.78-3.65-8.32.51-10.3Zm-5.17-2.15h0a2,2,0,0,1,1.82,2.15,1.84,1.84,0,1,1-3.63,0,2,2,0,0,1,1.81-2.15Z"/><polygon class="cls-2" points="175.02 11.2 129.23 11.2 129.23 12.47 175.02 12.47 175.02 11.2 175.02 11.2"/></g></g></svg>